<?xml version="1.0" encoding="utf-8"?>
<!-- Generator: Adobe Illustrator 17.0.0, SVG Export Plug-In . SVG Version: 6.00 Build 0)  -->
<!DOCTYPE svg PUBLIC "-//W3C//DTD SVG 1.1//EN" "http://www.w3.org/Graphics/SVG/1.1/DTD/svg11.dtd">
<svg version="1.1" id="Layer_1" xmlns="http://www.w3.org/2000/svg" xmlns:xlink="http://www.w3.org/1999/xlink" x="0px" y="0px"
	 width="118px" height="62px" viewBox="0 0 118 62" enable-background="new 0 0 118 62" xml:space="preserve">
<g>
	<path fill-rule="evenodd" clip-rule="evenodd" fill="#F16024" d="M59.943,33.641c-2.768,4.18-1.361,9.265-0.521,11.476
		c2.171-4.235,3.404-9.031,3.404-14.117c0-17.121-13.879-31-31-31c-17.121,0-31,13.879-31,31s13.879,31,31,31
		c11.177,0,20.969-5.917,26.423-14.787C54.897,38.593,59.943,33.641,59.943,33.641z"/>
	<path fill-rule="evenodd" clip-rule="evenodd" fill="#F16024" d="M107.112,33.45c0,0-0.727-0.205-0.632-0.954
		c0,0,0.531-1.92,1.172-0.054C107.653,32.442,107.869,33.286,107.112,33.45L107.112,33.45z M82.689,33.144
		c0,0,2.73-1.853,2.13,2.045c0,0-1.517,3.794-4.49,4.799C80.33,39.988,79.906,35.153,82.689,33.144L82.689,33.144z M70.48,42.512
		c0,0-4.738-1.576-3.94-7.429c0,0,0.731-3.285,2.643-0.893C69.183,34.189,71.444,37.279,70.48,42.512L70.48,42.512z M111.546,36.597
		c-3.689-1.822-2.891-2.017-2.891-2.017c1.262-1.306,0.943-3.024,0.943-3.024c-0.449-2.083-2.369-1.92-2.369-1.92
		c-1.907,0.041-2.628,1.727-2.628,1.727c-1.157,2.911,1.227,4.271,1.227,4.271c-2.921,4.722-5.173,8.376-7.354,10.538
		c-2.178,2.159-2.511-0.934-2.511-0.934c-1.177-4.371-0.262-12.602-0.262-12.602l4.388,0.075c0.743-0.888,0.449-2.168,0.449-2.168
		l-4.51-0.274c0.064-1.49,1.326-13.14,1.326-13.14l-3.528-0.199c-0.619,3.345-1.475,13.464-1.475,13.464l-2.029,0.025
		c-0.651,1.15-0.1,2.243-0.1,2.243l1.844,0.05c-0.293,1.53-0.447,5.009-0.464,5.911c-0.017,0.902-0.839,2.656-1.756,4.055
		c-0.875,1.336-3.08,5.216-6.206,4.092c-3.126-1.125-3.171-4.594-3.171-4.594c2.894-1.593,5.52-3.145,7.311-5.911
		c1.791-2.765,0.598-4.048,0-4.866c-0.599-0.818-4.405-2.457-7.742,0.986c-3.337,3.444-3.496,8.349-3.496,8.349
		c-0.706,0.968-2.143,1.52-2.143,1.52c0.221-0.923,0.371-1.14-0.279-4.352c-1.037-5.116-4.142-7.041-6.647-6.342
		c-2.505,0.699-4.03,3.344-2.907,7.661c1.123,4.316,5.572,5.375,5.572,5.375c-0.71,3.718-4.347,2.562-4.836,2.177
		c-2.942-1.473-3.211-5.251-3.211-5.251c-1.024-6.739,3.86-10.406,3.86-10.406c0.1-1.502-1.871-0.833-1.871-0.833
		c-2.262,0.851-7.337,4.337-5.325,12.833c2.012,8.496,8.977,7.113,8.977,7.113c5.189-0.362,6.43-5.71,6.43-5.71
		c1.163-0.149,2.557-1.206,2.557-1.206l0.144,0.707c1.474,5.958,4.674,6.94,8.058,5.978c3.305-0.939,6.472-6.273,6.472-6.273
		c0.303-0.547,0.155,0.017,0.155,0.017c0.126,2.668,0.827,4.139,0.827,4.139c1.443,4.111,5.044,1.93,5.044,1.93
		c5.67-3.067,9.116-13.679,9.628-13.547c0.512,0.132,5.9,3.258,6.595,7.106c0.695,3.848-2.901,5.669-5.061,4.943
		c-2.299-0.772-2.158-2.245-1.802-3.22c0.468-1.28,0.743-1.32,1.037-2.279c0.28-0.915-2.2-0.8-2.873,0.842
		c-1.324,3.232-0.381,4.163,0.211,4.997c0.416,0.587,1.646,1.652,3.226,1.928c2.594,0.453,5.933,0.063,7.938-3.489
		C119.186,42.008,114.147,37.882,111.546,36.597z"/>
	<path fill-rule="evenodd" clip-rule="evenodd" fill="#FFFFFF" d="M47.58,37.054c-1.748-0.154-3.916-0.975-4.697-3.922
		c0,0-0.576-3.947,1.11-7.171c0,0,1.601-3.553,3.764-5.356c1.229-1.024,2.354-1.11,3.531-0.347c0.673,0.437,1.435,1.145,2.022,2.375
		c0.988,2.071,1.005,4.098,0.738,6.317c-0.218,1.809-0.708,4.122-1.804,5.863C51.055,36.701,49.743,37.245,47.58,37.054
		L47.58,37.054z M30.977,25.755c-2.721-2.22-2.857-6.002-2.857-6.002c-0.047-1.741,0.31-2.499,0.741-2.74
		c0.949-0.53,1.334,0.643,1.567,1.328c0.731,2.153,0.709,5.024,0.524,7.351L30.977,25.755L30.977,25.755z M59.559,32.978
		c-2.385,2.02-4.634,3.084-4.634,3.084c3.469-5.111,3.32-11.543,3.32-11.543c0.032-11.488-8.516-9.621-8.516-9.621
		c-2.796,0.535-4.337,2.697-5.036,4.028c-0.333,0.633-0.601,1.324-0.905,1.975c-0.256,0.549-0.409,0.882-0.467,0.851
		c-0.142-0.077,0.163-1.396,0.163-1.396c0.336-1.875,0.285-3.624,0.206-4.639c-0.045-0.574-0.056-1.004-0.395-1.483
		c-0.335-0.473-0.701-0.484-0.996-0.359c-0.447,0.188-1.112,0.86-1.452,1.195c-1.655,1.63-2.897,4.17-2.897,4.17
		c-0.762,2.247-0.286,6.854-0.286,6.854c-2.002,1.545-3.367,0.883-3.367,0.883c1.093-9.304-1.424-12.082-1.424-12.082
		c-1.121-1.393-2.729-1.116-3.743-0.735c-0.612,0.23-1.11,0.525-1.583,0.971c-3.131,2.945-1.17,8.344-1.17,8.344
		c0.896,3.589,4.11,5.81,4.11,5.81c-0.501,6.636-1.627,10.848-2.394,13.061c-0.388,1.121-0.754,2.12-1.603,2.965
		c-2.402,2.391-4.123-1.697-4.123-1.697c-2.007-6.008-0.69-12.184-0.69-12.184c1.426-5.658,1.424-9.517,1.424-9.517
		c-0.097-1.54-1.483-1.222-1.483-1.222c-1.165,0.186-1.901,0.864-1.901,0.864c-3.801,7.913-2.322,19.52-2.322,19.52
		c-0.732,2.19-2.025,3.765-2.025,3.765c-1.621,1.935-2.604-0.299-3.114-2.247c-0.512-1.956-0.818-4.075-0.853-6.089
		c-0.107-6.296,1.624-14.913,1.624-14.913c0.742-3.732,0.627-6.315,0.627-6.315c0.063-1.835-0.86-1.463-0.86-1.463
		c-1.86,0.294-4.526,3.665-4.526,3.665C4.51,32.208,7.901,45.425,7.901,45.425c0.688,2.803,1.772,4.051,2.661,4.603
		c0.97,0.602,2.388,0.591,3.386,0.076c2.327-1.199,3.771-4.847,3.771-4.847c0.376-0.801,0.589-0.478,0.702-0.053
		c0.184,0.69,0.265,1.323,0.547,2.006c1.614,3.908,4.749,3.305,4.749,3.305c2.456-0.191,4.372-2.023,5.543-3.517
		c1-1.276,1.856-2.788,2.431-4.302c1.871-4.916,2.486-12.509,2.486-12.509c1.174,0.498,3.435-0.397,3.435-0.397
		c0.371,3.974-0.104,6.899-0.104,6.899c-1.857,10.382-0.904,14.043-0.904,14.043c0.589,2.532,1.736,1.379,1.736,1.379
		c1.699-1.628,2.331-2.82,2.565-3.466c0.404-1.112,0.455-2.496,0.568-3.673c0.154-1.607,0.285-3.211,0.285-4.826
		c0.001-0.792,0.002-1.592,0.096-2.314c0.056-0.433,0.271-0.479,0.46-0.363c0.781,0.483,1.321,0.964,2.262,1.363
		c1.129,0.479,2.232,0.631,3.086,0.658c1.382,0.044,2.901-0.213,4.244-0.495c2.63-0.554,4.96-2.305,6.67-3.939
		c1.819-1.738,1.912-2.422,3.002-3.253c0.205-0.156,0.857-0.681,1.245-0.901c0.746-0.423,0.838-0.791-0.551-0.116
		C61.464,31.18,59.559,32.978,59.559,32.978z"/>
	<g>
		<path fill="#193446" d="M62.166,61.952h-0.753l-1.162-3.997l-1.154,3.997h-0.753l-1.49-5.704h0.913l0.993,4.078l1.146-4.078h0.697
			l1.145,4.078l0.993-4.078h0.913L62.166,61.952z"/>
		<path fill="#193446" d="M65.088,61.952v-5.704h3.645v0.777h-2.78v1.666h2.371v0.769h-2.371v1.714h2.78v0.777H65.088z"/>
		<path fill="#193446" d="M72.825,61.952h-2.307v-5.704h2.219c1.058,0,1.722,0.601,1.722,1.562c0,0.617-0.384,1.058-0.769,1.21
			c0.441,0.176,0.858,0.601,0.858,1.322C74.547,61.391,73.833,61.952,72.825,61.952z M72.664,57.025h-1.282v1.634h1.282
			c0.553,0,0.93-0.289,0.93-0.817C73.594,57.314,73.216,57.025,72.664,57.025z M72.744,59.437h-1.362v1.738h1.362
			c0.601,0,0.938-0.369,0.938-0.873C73.681,59.797,73.345,59.437,72.744,59.437z"/>
		<path fill="#193446" d="M79.951,61.952v-5.704h3.645v0.777h-2.78v1.666h2.371v0.769h-2.371v1.714h2.78v0.777H79.951z"/>
		<path fill="#193446" d="M88.185,61.952l-1.242-2.187l-1.233,2.187h-0.994l1.763-2.924l-1.65-2.78h0.993l1.121,2.043l1.13-2.043
			h0.993l-1.65,2.78l1.771,2.924H88.185z"/>
		<path fill="#193446" d="M92.774,59.709h-1.298v2.243h-0.865v-5.704h2.163c1.113,0,1.827,0.737,1.827,1.731
			C94.6,58.972,93.887,59.709,92.774,59.709z M92.725,57.025h-1.25v1.899h1.25c0.601,0,1.01-0.345,1.01-0.945
			S93.326,57.025,92.725,57.025z"/>
		<path fill="#193446" d="M96.249,61.952v-5.704h3.644v0.777h-2.78v1.666h2.371v0.769h-2.371v1.714h2.78v0.777H96.249z"/>
		<path fill="#193446" d="M104.826,61.952l-1.202-2.403h-1.081v2.403h-0.866v-5.704h2.211c1.082,0,1.771,0.697,1.771,1.667
			c0,0.817-0.497,1.338-1.137,1.514l1.314,2.524H104.826z M103.825,57.025h-1.282v1.786h1.282c0.576,0,0.969-0.328,0.969-0.889
			C104.794,57.361,104.402,57.025,103.825,57.025z"/>
		<path fill="#193446" d="M109.455,57.025v4.927h-0.865v-4.927h-1.57v-0.777h4.005v0.777H109.455z"/>
		<path fill="#193446" d="M114.124,62c-0.857,0-1.474-0.2-2.019-0.753l0.577-0.569c0.416,0.417,0.872,0.545,1.457,0.545
			c0.746,0,1.178-0.32,1.178-0.873c0-0.248-0.072-0.456-0.225-0.593c-0.144-0.136-0.288-0.192-0.625-0.24l-0.673-0.096
			c-0.465-0.064-0.833-0.224-1.082-0.457c-0.28-0.265-0.416-0.625-0.416-1.09c0-0.993,0.721-1.674,1.907-1.674
			c0.753,0,1.282,0.192,1.77,0.649l-0.553,0.545c-0.352-0.336-0.76-0.441-1.242-0.441c-0.673,0-1.041,0.385-1.041,0.889
			c0,0.208,0.064,0.392,0.216,0.528c0.144,0.128,0.376,0.225,0.64,0.265l0.649,0.096c0.529,0.08,0.826,0.209,1.065,0.424
			c0.313,0.272,0.465,0.681,0.465,1.17C116.174,61.375,115.318,62,114.124,62z"/>
	</g>
</g>
</svg>
